<svg width="217" height="57" viewBox="0 0 217 57" fill="none" xmlns="http://www.w3.org/2000/svg">
<path d="M0.337348 18V14.1646H11.7679C12.3398 14.1646 12.8361 14.0552 13.2566 13.8366C13.6772 13.6011 13.8875 13.2226 13.8875 12.7011C13.8875 12.2637 13.7276 11.9357 13.408 11.717C13.0884 11.4983 12.7015 11.3553 12.2473 11.288H6.39326C5.56898 11.288 4.80358 11.1871 4.09706 10.9852C3.39054 10.7665 2.76812 10.4469 2.22982 10.0264C1.70834 9.60583 1.27938 9.09276 0.942939 8.48717C0.6065 7.86475 0.404636 7.15823 0.337348 6.3676V5.63584C0.43828 4.84521 0.648554 4.1471 0.968172 3.5415C1.30461 2.91909 1.73357 2.40602 2.25505 2.00229C2.77654 1.58174 3.38213 1.26213 4.07183 1.04344C4.77835 0.824754 5.55216 0.715411 6.39326 0.715411H18.606V4.55082H7.17548C6.60354 4.55082 6.10729 4.66858 5.68674 4.90408C5.26619 5.12277 5.05591 5.49285 5.05591 6.01434C5.05591 6.45171 5.20731 6.78815 5.51011 7.02366C5.82973 7.25916 6.21663 7.40215 6.67082 7.45262H12.5501C13.3744 7.45262 14.1398 7.56196 14.8463 7.78064C15.5528 7.98251 16.1668 8.29372 16.6883 8.71426C17.2266 9.11799 17.6556 9.63106 17.9752 10.2535C18.3116 10.8591 18.5219 11.5572 18.606 12.3478V13.0796C18.5051 13.8702 18.2864 14.5767 17.95 15.1991C17.6303 15.8047 17.2098 16.3178 16.6883 16.7384C16.1668 17.1421 15.5528 17.4533 14.8463 17.672C14.1398 17.8907 13.3744 18 12.5501 18H0.337348ZM21.2827 18V7.45262H32.7132C33.2852 7.45262 33.7814 7.34327 34.202 7.12459C34.6225 6.88908 34.8328 6.519 34.8328 6.01434C34.8328 5.49285 34.6225 5.12277 34.202 4.90408C33.7814 4.66858 33.2852 4.55082 32.7132 4.55082H21.2827V0.715411H33.4954C34.3197 0.715411 35.0851 0.824754 35.7916 1.04344C36.4982 1.26213 37.1122 1.58174 37.6337 2.00229C38.1551 2.40602 38.5757 2.91909 38.8953 3.5415C39.2317 4.1471 39.4504 4.84521 39.5514 5.63584V6.3676C39.4 7.98251 38.7607 9.21051 37.6337 10.0516C36.5066 10.8759 34.9758 11.288 33.0413 11.288L39.6271 18H33.9496L27.1872 11.288H25.9256V18H21.2827ZM53.2548 18L46.8709 7.27599V18H42.228V0.715411H47.8298L54.3146 11.5151L60.7995 0.715411H66.4012V18H61.7584V7.27599L55.3744 18H53.2548ZM1.00602 57V41.1789H18.1518C19.0098 41.1789 19.7541 41.0149 20.3849 40.6869C21.0158 40.3336 21.3312 39.7785 21.3312 39.0215C21.3312 38.2393 21.0158 37.6842 20.3849 37.3561C19.7541 37.0029 19.0098 36.8262 18.1518 36.8262H1.00602V31.0731H19.3252C20.5616 31.0731 21.7097 31.2371 22.7695 31.5652C23.8292 31.8932 24.7503 32.3726 25.5325 33.0034C26.3147 33.609 26.9455 34.3786 27.4249 35.3123C27.9296 36.2206 28.2576 37.2678 28.409 38.4538V39.5514C28.1819 41.9738 27.2231 43.8158 25.5325 45.0774C23.8419 46.3138 21.5457 46.932 18.6439 46.932L28.5226 57H20.0065L9.8628 46.932H7.97032V57H1.00602ZM32.424 39.5514C32.424 38.1888 32.6385 36.9902 33.0675 35.9557C33.5217 34.8959 34.1399 34.0128 34.9221 33.3062C35.7296 32.5745 36.6884 32.0194 37.7987 31.6409C38.9089 31.2624 40.1327 31.0731 41.4701 31.0731H50.7432C52.0805 31.0731 53.3043 31.2624 54.4146 31.6409C55.5248 32.0194 56.4837 32.5745 57.2911 33.3062C58.0986 34.0128 58.7168 34.8959 59.1458 35.9557C59.6 36.9902 59.827 38.1888 59.827 39.5514V48.5217C59.827 49.8843 59.6 51.0955 59.1458 52.1553C58.7168 53.2151 58.0986 54.1108 57.2911 54.8426C56.4837 55.5491 55.5248 56.0916 54.4146 56.4701C53.3043 56.8234 52.0805 57 50.7432 57H41.4701C40.1327 57 38.9089 56.8234 37.7987 56.4701C36.6884 56.0916 35.7296 55.5491 34.9221 54.8426C34.1399 54.1108 33.5217 53.2151 33.0675 52.1553C32.6385 51.0955 32.424 49.8843 32.424 48.5217V39.5514ZM52.8627 47.954V40.1191C52.8627 39.0341 52.5726 38.214 51.9922 37.6589C51.4371 37.1038 50.6296 36.8262 49.5698 36.8262H42.6812C41.6215 36.8262 40.8014 37.1038 40.221 37.6589C39.6659 38.214 39.3883 39.0341 39.3883 40.1191V47.954C39.3883 49.039 39.6659 49.8591 40.221 50.4142C40.8014 50.9693 41.6215 51.2469 42.6812 51.2469H49.5698C50.6296 51.2469 51.4371 50.9693 51.9922 50.4142C52.5726 49.8591 52.8627 49.039 52.8627 47.954ZM63.842 57V41.1789H81.707C82.3883 41.1032 82.9686 40.8887 83.4481 40.5355C83.9275 40.1822 84.1672 39.6776 84.1672 39.0215C84.1672 38.2393 83.8518 37.6842 83.221 37.3561C82.5901 37.0029 81.8458 36.8262 80.9879 36.8262H63.842V31.0731H82.1612C83.3976 31.0731 84.5457 31.2371 85.6055 31.5652C86.6653 31.8932 87.5863 32.3726 88.3685 33.0034C89.1507 33.609 89.7815 34.3786 90.261 35.3123C90.7656 36.2206 91.0937 37.2678 91.2451 38.4538V39.5514C91.0432 41.3934 90.425 42.9074 89.3904 44.0933C90.3998 45.2793 91.018 46.7554 91.2451 48.5217V49.6194C91.1189 50.8053 90.8035 51.8651 90.2988 52.7987C89.8194 53.7071 89.176 54.4767 88.3685 55.1075C87.5863 55.7384 86.6653 56.2178 85.6055 56.5458C84.5457 56.8486 83.3976 57 82.1612 57H63.842ZM81.707 46.932H70.8063V51.2469H80.9879C81.8458 51.2469 82.5901 51.0829 83.221 50.7548C83.8518 50.4016 84.1672 49.8465 84.1672 49.0895C84.1672 48.4334 83.9275 47.9414 83.4481 47.6133C82.9686 47.2601 82.3883 47.033 81.707 46.932ZM95.2601 39.5514C95.2601 38.1888 95.4745 36.9902 95.9035 35.9557C96.3577 34.8959 96.9759 34.0128 97.7581 33.3062C98.5656 32.5745 99.5244 32.0194 100.635 31.6409C101.745 31.2624 102.969 31.0731 104.306 31.0731H113.579C114.917 31.0731 116.14 31.2624 117.251 31.6409C118.361 32.0194 119.32 32.5745 120.127 33.3062C120.935 34.0128 121.553 34.8959 121.982 35.9557C122.436 36.9902 122.663 38.1888 122.663 39.5514V48.5217C122.663 49.8843 122.436 51.0955 121.982 52.1553C121.553 53.2151 120.935 54.1108 120.127 54.8426C119.32 55.5491 118.361 56.0916 117.251 56.4701C116.14 56.8234 114.917 57 113.579 57H104.306C102.969 57 101.745 56.8234 100.635 56.4701C99.5244 56.0916 98.5656 55.5491 97.7581 54.8426C96.9759 54.1108 96.3577 53.2151 95.9035 52.1553C95.4745 51.0955 95.2601 49.8843 95.2601 48.5217V39.5514ZM115.699 47.954V40.1191C115.699 39.0341 115.409 38.214 114.828 37.6589C114.273 37.1038 113.466 36.8262 112.406 36.8262H105.517C104.457 36.8262 103.637 37.1038 103.057 37.6589C102.502 38.214 102.224 39.0341 102.224 40.1191V47.954C102.224 49.039 102.502 49.8591 103.057 50.4142C103.637 50.9693 104.457 51.2469 105.517 51.2469H112.406C113.466 51.2469 114.273 50.9693 114.828 50.4142C115.409 49.8591 115.699 49.039 115.699 47.954ZM147.117 47.954V46.9699H154.081V48.5217C154.081 49.8843 153.854 51.0955 153.4 52.1553C152.971 53.2151 152.353 54.1108 151.545 54.8426C150.738 55.5491 149.779 56.0916 148.669 56.4701C147.558 56.8234 146.335 57 144.997 57H135.724C134.387 57 133.163 56.8234 132.053 56.4701C130.942 56.0916 129.984 55.5491 129.176 54.8426C128.394 54.1108 127.776 53.2151 127.322 52.1553C126.893 51.0955 126.678 49.8843 126.678 48.5217V39.5514C126.678 38.1888 126.893 36.9902 127.322 35.9557C127.776 34.8959 128.394 34.0128 129.176 33.3062C129.984 32.5745 130.942 32.0194 132.053 31.6409C133.163 31.2624 134.387 31.0731 135.724 31.0731H144.997C146.335 31.0731 147.558 31.2624 148.669 31.6409C149.779 32.0194 150.738 32.5745 151.545 33.3062C152.353 34.0128 152.971 34.8959 153.4 35.9557C153.854 36.9902 154.081 38.1888 154.081 39.5514V41.1032H147.117V40.1191C147.117 39.0341 146.827 38.214 146.246 37.6589C145.691 37.1038 144.884 36.8262 143.824 36.8262H136.935C135.875 36.8262 135.055 37.1038 134.475 37.6589C133.92 38.214 133.642 39.0341 133.642 40.1191V47.954C133.642 49.039 133.92 49.8591 134.475 50.4142C135.055 50.9693 135.875 51.2469 136.935 51.2469H143.824C144.884 51.2469 145.691 50.9693 146.246 50.4142C146.827 49.8591 147.117 49.039 147.117 47.954ZM158.096 39.5514C158.096 38.1888 158.311 36.9902 158.74 35.9557C159.194 34.8959 159.812 34.0128 160.594 33.3062C161.402 32.5745 162.36 32.0194 163.471 31.6409C164.581 31.2624 165.805 31.0731 167.142 31.0731H176.415C177.753 31.0731 178.976 31.2624 180.087 31.6409C181.197 32.0194 182.156 32.5745 182.963 33.3062C183.771 34.0128 184.389 34.8959 184.818 35.9557C185.272 36.9902 185.499 38.1888 185.499 39.5514V48.5217C185.499 49.8843 185.272 51.0955 184.818 52.1553C184.389 53.2151 183.771 54.1108 182.963 54.8426C182.156 55.5491 181.197 56.0916 180.087 56.4701C178.976 56.8234 177.753 57 176.415 57H167.142C165.805 57 164.581 56.8234 163.471 56.4701C162.36 56.0916 161.402 55.5491 160.594 54.8426C159.812 54.1108 159.194 53.2151 158.74 52.1553C158.311 51.0955 158.096 49.8843 158.096 48.5217V39.5514ZM178.535 47.954V40.1191C178.535 39.0341 178.245 38.214 177.664 37.6589C177.109 37.1038 176.302 36.8262 175.242 36.8262H168.353C167.293 36.8262 166.473 37.1038 165.893 37.6589C165.338 38.214 165.06 39.0341 165.06 40.1191V47.954C165.06 49.039 165.338 49.8591 165.893 50.4142C166.473 50.9693 167.293 51.2469 168.353 51.2469H175.242C176.302 51.2469 177.109 50.9693 177.664 50.4142C178.245 49.8591 178.535 49.039 178.535 47.954ZM216.917 57H209.877L196.478 40.914V57H189.514V31.0731H196.592L209.953 47.1591V31.0731H216.917V57Z" fill="white"/>
<path d="M98.9129 4.55082H92.1V18H87.4572V4.55082H80.6442V0.715411H98.9129V4.55082ZM101.59 18V7.45262H118.092V11.288H106.232V14.1646H118.092V18H101.59ZM118.092 4.55082H101.59V0.715411H118.092V4.55082ZM126.867 18V14.1646H131.51V18H126.867ZM133.63 18L129.189 4.90408L124.748 18H120.13L126.06 0.715411H132.317L138.272 18H133.63ZM151.353 18L144.969 7.27599V18H140.326V0.715411H145.928L152.413 11.5151L158.898 0.715411H164.499V18H159.856V7.27599L153.473 18H151.353Z" fill="#C20000"/>
</svg>
